<svg width="22" height="29" fill="none" xmlns="http://www.w3.org/2000/svg"><path d="M15.3.315H4.105A2.969 2.969 0 001.14 3.277v10.954H.85c-.66 0-1.196.534-1.196 1.193v7.24c0 .659.536 1.193 1.196 1.193h.29v1.327a2.968 2.968 0 002.966 2.962h15.276a2.967 2.967 0 002.966-2.962V7.326L15.3.316zM5.364 20.82c.343 0 .724-.074.948-.163l.17.886c-.208.104-.678.216-1.29.216-1.738 0-2.633-1.08-2.633-2.51 0-1.713 1.224-2.666 2.745-2.666.59 0 1.037.119 1.239.223l-.231.901a2.451 2.451 0 00-.955-.186c-.903 0-1.604.544-1.604 1.66 0 1.006.596 1.64 1.611 1.64zm14.018 5.513H4.105a1.15 1.15 0 01-1.149-1.148v-1.327h14.24c.66 0 1.196-.534 1.196-1.194v-7.239c0-.66-.536-1.193-1.196-1.193H2.956V3.277a1.15 1.15 0 011.15-1.146l10.515-.01V6c0 1.134.921 2.054 2.057 2.054l3.808-.01.043 17.14a1.15 1.15 0 01-1.148 1.147zM8.484 19.576c-.836-.29-1.38-.753-1.38-1.482 0-.858.715-1.512 1.902-1.512.567 0 .985.119 1.283.252l-.254.917a2.397 2.397 0 00-1.052-.239c-.492 0-.73.224-.73.484 0 .32.283.463.932.708.888.328 1.306.79 1.306 1.498 0 .841-.65 1.556-2.03 1.556-.574 0-1.141-.149-1.425-.306l.232-.938c.306.157.776.313 1.26.313.522 0 .799-.216.799-.544 0-.313-.24-.492-.843-.707zm4.03 0c-.835-.29-1.38-.753-1.38-1.482 0-.858.716-1.512 1.902-1.512.568 0 .985.119 1.284.252l-.254.917a2.398 2.398 0 00-1.052-.239c-.492 0-.731.224-.731.484 0 .32.283.463.933.708.887.328 1.305.79 1.305 1.498 0 .841-.649 1.556-2.029 1.556-.575 0-1.142-.149-1.425-.306l.231-.938c.306.157.776.313 1.26.313.523 0 .8-.216.8-.544 0-.313-.24-.492-.844-.707z" fill="#2A7AE4"/></svg>