<svg width="34" height="33" fill="none" xmlns="http://www.w3.org/2000/svg"><path d="M33.375 2.438L31.562.625C31.188.25 30.688 0 30.125 0c-.563 0-1.063.25-1.438.625L25.813 3.5c-.25.25-.437.563-.562.875l-.75 2.25-4.75 4.813c-.75-.563-1.563-1-2.5-1.188-2.125-.5-4.188-.063-5.625 1.375-.563.563-1 1.25-1.25 2.063C10 14.874 8.937 15.75 7.75 15.874c-1.5.125-2.875.688-3.938 1.75C.938 20.438 1.5 25.563 4.938 29.063c3.5 3.437 8.625 3.937 11.437 1.125 1.063-1.063 1.625-2.438 1.813-3.938.062-1.188.937-2.25 2.125-2.625.812-.25 1.5-.688 2.062-1.25 1.438-1.438 1.875-3.5 1.375-5.625-.188-.875-.625-1.75-1.188-2.5l4.813-4.75 2.25-.75c.313-.125.625-.313.875-.563l2.875-2.874c.375-.375.563-.875.563-1.438s-.188-1.063-.563-1.438zM15 22c-1.688 0-3-1.313-3-3a3 3 0 013-3c1.625 0 3 1.375 3 3a3 3 0 01-3 3z" fill="#2A7AE4"/></svg>