<svg width="28" height="28" fill="none" xmlns="http://www.w3.org/2000/svg"><path d="M25 0c1.625 0 3 1.375 3 3v22a3 3 0 01-3 3H3c-1.688 0-3-1.313-3-3V3a3 3 0 013-3h22zm-9.813 21.875v-9h-2.624v8.938c0 1.312-.563 1.687-1.376 1.687-.937 0-1.312-.625-1.687-1.375l-2.188 1.313c.625 1.312 1.875 2.375 3.938 2.375 2.375 0 3.938-1.25 3.938-3.938zm6.25 3.938c2.5 0 4.375-1.25 4.375-3.625 0-2.188-1.25-3.188-3.5-4.125l-.687-.313C20.5 17.25 20 16.937 20 16.125 20 15.5 20.5 15 21.25 15c.813 0 1.25.375 1.75 1.125l2-1.313c-.813-1.5-2.063-2.062-3.688-2.062-2.375 0-3.875 1.5-3.875 3.438 0 2.187 1.25 3.187 3.125 4l.688.25c1.188.562 1.938.875 1.938 1.75 0 .75-.75 1.312-1.813 1.312-1.313 0-2-.688-2.563-1.563l-2.187 1.188c.813 1.563 2.375 2.688 4.813 2.688z" fill="#2A7AE4"/></svg>