<svg xmlns="http://www.w3.org/2000/svg" xmlns:xlink="http://www.w3.org/1999/xlink" width="500" zoomAndPan="magnify" viewBox="0 0 375 374.999991" height="500" preserveAspectRatio="xMidYMid meet" version="1.0"><defs><g/><clipPath id="17823c286e"><path d="M 167 124 L 207 124 L 207 178 L 167 178 Z M 167 124 " clip-rule="nonzero"/></clipPath><clipPath id="8fc76ba8c0"><path d="M 194.753906 124.605469 L 207.082031 132.046875 L 179.445312 177.839844 L 167.113281 170.398438 Z M 194.753906 124.605469 " clip-rule="nonzero"/></clipPath><clipPath id="03339e1004"><path d="M 194.753906 124.605469 L 206.828125 131.890625 L 179.539062 177.109375 L 167.464844 169.820312 Z M 194.753906 124.605469 " clip-rule="nonzero"/></clipPath><clipPath id="54096fc454"><path d="M 171 133 L 198 133 L 198 161 L 171 161 Z M 171 133 " clip-rule="nonzero"/></clipPath><clipPath id="f2ca6be043"><path d="M 181.324219 133.59375 L 198.347656 143.871094 L 188.074219 160.898438 L 171.046875 150.621094 Z M 181.324219 133.59375 " clip-rule="nonzero"/></clipPath><clipPath id="55f49249af"><path d="M 181.324219 133.59375 L 197.777344 143.527344 L 187.660156 160.289062 L 171.207031 150.359375 Z M 181.324219 133.59375 " clip-rule="nonzero"/></clipPath><clipPath id="3240adb509"><path d="M 187 133 L 214 133 L 214 159 L 187 159 Z M 187 133 " clip-rule="nonzero"/></clipPath><clipPath id="eed740467c"><path d="M 197.007812 133.59375 L 214.035156 143.871094 L 204.820312 159.136719 L 187.792969 148.859375 Z M 197.007812 133.59375 " clip-rule="nonzero"/></clipPath><clipPath id="93df6375aa"><path d="M 197.007812 133.59375 L 213.460938 143.527344 L 204.421875 158.5 L 187.96875 148.570312 Z M 197.007812 133.59375 " clip-rule="nonzero"/></clipPath></defs><g fill="#ffffff" fill-opacity="1"><g transform="translate(157.2688, 149.928648)"><g><path d="M 11.09375 -40.5 C 11.09375 -38.351562 11.597656 -36.503906 12.609375 -34.953125 C 13.628906 -33.398438 14.875 -32.097656 16.34375 -31.046875 C 17.820312 -30.003906 19.875 -28.707031 22.5 -27.15625 C 25.28125 -25.5 27.4375 -24.117188 28.96875 -23.015625 C 30.5 -21.921875 31.8125 -20.515625 32.90625 -18.796875 C 34 -17.085938 34.546875 -15.023438 34.546875 -12.609375 C 34.546875 -10.097656 33.929688 -7.8125 32.703125 -5.75 C 31.472656 -3.6875 29.640625 -2.050781 27.203125 -0.84375 C 24.765625 0.363281 21.773438 0.96875 18.234375 0.96875 C 16.359375 0.96875 14.578125 0.765625 12.890625 0.359375 C 11.203125 -0.0351562 9.34375 -0.742188 7.3125 -1.765625 C 7.039062 -1.929688 6.863281 -2.117188 6.78125 -2.328125 C 6.707031 -2.546875 6.644531 -2.867188 6.59375 -3.296875 L 5.390625 -13.734375 L 5.390625 -13.828125 C 5.390625 -14.035156 5.519531 -14.148438 5.78125 -14.171875 C 6.050781 -14.203125 6.210938 -14.113281 6.265625 -13.90625 C 6.804688 -10.207031 8.226562 -6.988281 10.53125 -4.25 C 12.832031 -1.519531 15.992188 -0.15625 20.015625 -0.15625 C 22.847656 -0.15625 25.242188 -0.929688 27.203125 -2.484375 C 29.160156 -4.046875 30.140625 -6.484375 30.140625 -9.796875 C 30.140625 -12.210938 29.601562 -14.289062 28.53125 -16.03125 C 27.457031 -17.769531 26.15625 -19.210938 24.625 -20.359375 C 23.101562 -21.515625 21.03125 -22.867188 18.40625 -24.421875 C 15.832031 -25.921875 13.804688 -27.234375 12.328125 -28.359375 C 10.859375 -29.484375 9.597656 -30.890625 8.546875 -32.578125 C 7.503906 -34.265625 6.984375 -36.289062 6.984375 -38.65625 C 6.984375 -41.332031 7.664062 -43.609375 9.03125 -45.484375 C 10.40625 -47.359375 12.1875 -48.765625 14.375 -49.703125 C 16.570312 -50.640625 18.929688 -51.109375 21.453125 -51.109375 C 24.398438 -51.109375 27.453125 -50.46875 30.609375 -49.1875 C 31.421875 -48.863281 31.828125 -48.40625 31.828125 -47.8125 L 32.546875 -39.296875 C 32.546875 -39.078125 32.394531 -38.96875 32.09375 -38.96875 C 31.800781 -38.96875 31.628906 -39.078125 31.578125 -39.296875 C 31.367188 -42.078125 30.328125 -44.566406 28.453125 -46.765625 C 26.578125 -48.960938 23.894531 -50.0625 20.40625 -50.0625 C 17.195312 -50.0625 14.84375 -49.125 13.34375 -47.25 C 11.84375 -45.375 11.09375 -43.125 11.09375 -40.5 Z M 11.09375 -40.5 "/></g></g></g><g fill="#ffffff" fill-opacity="1"><g transform="translate(176.180078, 189.169223)"><g><path d="M 57.859375 -0.96875 C 58.015625 -0.96875 58.09375 -0.804688 58.09375 -0.484375 C 58.09375 -0.160156 58.015625 0 57.859375 0 C 56.203125 0 54.914062 -0.0234375 54 -0.078125 L 48.625 -0.15625 L 43.078125 -0.078125 C 42.160156 -0.0234375 40.898438 0 39.296875 0 C 39.140625 0 39.0625 -0.160156 39.0625 -0.484375 C 39.0625 -0.804688 39.140625 -0.96875 39.296875 -0.96875 C 41.441406 -0.96875 42.992188 -1.097656 43.953125 -1.359375 C 44.921875 -1.628906 45.578125 -2.140625 45.921875 -2.890625 C 46.273438 -3.640625 46.453125 -4.847656 46.453125 -6.515625 L 46.453125 -25.390625 L 14.390625 -25.390625 L 14.390625 -6.515625 C 14.390625 -4.847656 14.5625 -3.640625 14.90625 -2.890625 C 15.25 -2.140625 15.90625 -1.628906 16.875 -1.359375 C 17.84375 -1.097656 19.394531 -0.96875 21.53125 -0.96875 C 21.644531 -0.96875 21.703125 -0.804688 21.703125 -0.484375 C 21.703125 -0.160156 21.644531 0 21.53125 0 C 19.925781 0 18.640625 -0.0234375 17.671875 -0.078125 L 12.21875 -0.15625 L 6.90625 -0.078125 C 5.945312 -0.0234375 4.609375 0 2.890625 0 C 2.785156 0 2.734375 -0.160156 2.734375 -0.484375 C 2.734375 -0.804688 2.785156 -0.96875 2.890625 -0.96875 C 4.984375 -0.96875 6.523438 -1.097656 7.515625 -1.359375 C 8.503906 -1.628906 9.1875 -2.148438 9.5625 -2.921875 C 9.9375 -3.703125 10.125 -4.898438 10.125 -6.515625 L 10.125 -43.71875 C 10.125 -45.320312 9.945312 -46.5 9.59375 -47.25 C 9.25 -48 8.582031 -48.519531 7.59375 -48.8125 C 6.601562 -49.113281 5.0625 -49.265625 2.96875 -49.265625 C 2.863281 -49.265625 2.8125 -49.421875 2.8125 -49.734375 C 2.8125 -50.054688 2.863281 -50.21875 2.96875 -50.21875 L 6.90625 -50.140625 C 9.15625 -50.035156 10.925781 -49.984375 12.21875 -49.984375 C 13.664062 -49.984375 15.515625 -50.035156 17.765625 -50.140625 L 21.53125 -50.21875 C 21.644531 -50.21875 21.703125 -50.054688 21.703125 -49.734375 C 21.703125 -49.421875 21.644531 -49.265625 21.53125 -49.265625 C 19.445312 -49.265625 17.90625 -49.101562 16.90625 -48.78125 C 15.914062 -48.457031 15.25 -47.90625 14.90625 -47.125 C 14.5625 -46.351562 14.390625 -45.164062 14.390625 -43.5625 L 14.390625 -26.921875 L 46.453125 -26.921875 L 46.453125 -43.5625 C 46.453125 -45.164062 46.273438 -46.351562 45.921875 -47.125 C 45.578125 -47.90625 44.910156 -48.457031 43.921875 -48.78125 C 42.929688 -49.101562 41.390625 -49.265625 39.296875 -49.265625 C 39.140625 -49.265625 39.0625 -49.421875 39.0625 -49.734375 C 39.0625 -50.054688 39.140625 -50.21875 39.296875 -50.21875 L 43.078125 -50.140625 C 45.328125 -50.035156 47.175781 -49.984375 48.625 -49.984375 C 49.957031 -49.984375 51.75 -50.035156 54 -50.140625 L 57.859375 -50.21875 C 58.015625 -50.21875 58.09375 -50.054688 58.09375 -49.734375 C 58.09375 -49.421875 58.015625 -49.265625 57.859375 -49.265625 C 55.765625 -49.265625 54.222656 -49.113281 53.234375 -48.8125 C 52.242188 -48.519531 51.5625 -48 51.1875 -47.25 C 50.8125 -46.5 50.625 -45.320312 50.625 -43.71875 L 50.625 -6.515625 C 50.625 -4.898438 50.8125 -3.703125 51.1875 -2.921875 C 51.5625 -2.148438 52.242188 -1.628906 53.234375 -1.359375 C 54.222656 -1.097656 55.765625 -0.96875 57.859375 -0.96875 Z M 57.859375 -0.96875 "/></g></g></g><g clip-path="url(#17823c286e)"><g clip-path="url(#8fc76ba8c0)"><g clip-path="url(#03339e1004)"><path fill="#000000" d="M 194.753906 124.605469 L 207.082031 132.046875 L 179.796875 177.253906 L 167.46875 169.8125 Z M 194.753906 124.605469 " fill-opacity="1" fill-rule="nonzero"/></g></g></g><g clip-path="url(#54096fc454)"><g clip-path="url(#f2ca6be043)"><g clip-path="url(#55f49249af)"><path fill="#000000" d="M 181.324219 133.59375 L 197.761719 143.515625 L 187.488281 160.542969 L 171.046875 150.621094 Z M 181.324219 133.59375 " fill-opacity="1" fill-rule="nonzero"/></g></g></g><g clip-path="url(#3240adb509)"><g clip-path="url(#eed740467c)"><g clip-path="url(#93df6375aa)"><path fill="#000000" d="M 197.007812 133.59375 L 213.445312 143.515625 L 204.234375 158.78125 L 187.792969 148.859375 Z M 197.007812 133.59375 " fill-opacity="1" fill-rule="nonzero"/></g></g></g><path stroke-linecap="butt" transform="matrix(0.443581, -0.601861, 0.603742, 0.444967, 159.467996, 186.60762)" fill="none" stroke-linejoin="miter" d="M 0.000812896 0.997041 L 125.4 0.997528 " stroke="#ffffff" stroke-width="2" stroke-opacity="1" stroke-miterlimit="4"/></svg>