<svg xmlns="http://www.w3.org/2000/svg" xmlns:xlink="http://www.w3.org/1999/xlink" width="500" zoomAndPan="magnify" viewBox="0 0 375 374.999991" height="500" preserveAspectRatio="xMidYMid meet" version="1.0"><defs><g/><clipPath id="82208b0a47"><path d="M 81 110 L 237 110 L 237 317 L 81 317 Z M 81 110 " clip-rule="nonzero"/></clipPath><clipPath id="54f0994706"><path d="M 189.050781 110.464844 L 236.882812 139.332031 L 129.410156 317.414062 L 81.578125 288.542969 Z M 189.050781 110.464844 " clip-rule="nonzero"/></clipPath><clipPath id="6e955a452f"><path d="M 189.050781 110.464844 L 236.460938 139.078125 L 129.320312 316.609375 L 81.90625 287.996094 Z M 189.050781 110.464844 " clip-rule="nonzero"/></clipPath><clipPath id="500ecc3691"><path d="M 96 145 L 201 145 L 201 251 L 96 251 Z M 96 145 " clip-rule="nonzero"/></clipPath><clipPath id="b373c2f4ca"><path d="M 136.324219 145.757812 L 201.445312 185.0625 L 161.449219 251.335938 L 96.324219 212.035156 Z M 136.324219 145.757812 " clip-rule="nonzero"/></clipPath><clipPath id="72b5f768db"><path d="M 136.324219 145.757812 L 200.925781 184.75 L 161.203125 250.570312 L 96.597656 211.582031 Z M 136.324219 145.757812 " clip-rule="nonzero"/></clipPath></defs><g fill="#ffffff" fill-opacity="1"><g transform="translate(41.866861, 209.899186)"><g><path d="M 43.53125 -159.015625 C 43.53125 -150.597656 45.53125 -143.335938 49.53125 -137.234375 C 53.53125 -131.140625 58.421875 -126.039062 64.203125 -121.9375 C 69.984375 -117.832031 78.03125 -112.734375 88.34375 -106.640625 C 99.28125 -100.117188 107.742188 -94.703125 113.734375 -90.390625 C 119.734375 -86.078125 124.890625 -80.554688 129.203125 -73.828125 C 133.515625 -67.097656 135.671875 -59 135.671875 -49.53125 C 135.671875 -39.644531 133.25 -30.648438 128.40625 -22.546875 C 123.570312 -14.453125 116.367188 -8.039062 106.796875 -3.3125 C 97.222656 1.414062 85.5 3.78125 71.625 3.78125 C 64.257812 3.78125 57.265625 2.988281 50.640625 1.40625 C 44.015625 -0.164062 36.703125 -2.945312 28.703125 -6.9375 C 27.660156 -7.570312 26.976562 -8.304688 26.65625 -9.140625 C 26.34375 -9.984375 26.082031 -11.25 25.875 -12.9375 L 21.140625 -53.953125 L 21.140625 -54.265625 C 21.140625 -55.109375 21.664062 -55.582031 22.71875 -55.6875 C 23.769531 -55.789062 24.398438 -55.421875 24.609375 -54.578125 C 26.710938 -40.066406 32.285156 -27.445312 41.328125 -16.71875 C 50.367188 -5.988281 62.78125 -0.625 78.5625 -0.625 C 89.707031 -0.625 99.117188 -3.675781 106.796875 -9.78125 C 114.472656 -15.882812 118.3125 -25.453125 118.3125 -38.484375 C 118.3125 -47.953125 116.207031 -56.101562 112 -62.9375 C 107.789062 -69.78125 102.6875 -75.460938 96.6875 -79.984375 C 90.695312 -84.503906 82.550781 -89.8125 72.25 -95.90625 C 62.15625 -101.800781 54.210938 -106.957031 48.421875 -111.375 C 42.640625 -115.789062 37.695312 -121.3125 33.59375 -127.9375 C 29.5 -134.5625 27.453125 -142.5 27.453125 -151.75 C 27.453125 -162.269531 30.128906 -171.207031 35.484375 -178.5625 C 40.847656 -185.925781 47.84375 -191.445312 56.46875 -195.125 C 65.09375 -198.8125 74.347656 -200.65625 84.234375 -200.65625 C 95.804688 -200.65625 107.796875 -198.132812 120.203125 -193.09375 C 123.359375 -191.820312 124.9375 -190.03125 124.9375 -187.71875 L 127.78125 -154.28125 C 127.78125 -153.4375 127.203125 -153.015625 126.046875 -153.015625 C 124.890625 -153.015625 124.203125 -153.4375 123.984375 -154.28125 C 123.148438 -165.21875 119.050781 -175 111.6875 -183.625 C 104.320312 -192.25 93.804688 -196.5625 80.140625 -196.5625 C 67.515625 -196.5625 58.253906 -192.878906 52.359375 -185.515625 C 46.472656 -178.148438 43.53125 -169.316406 43.53125 -159.015625 Z M 43.53125 -159.015625 "/></g></g></g><g fill="#ffffff" fill-opacity="1"><g transform="translate(116.118831, 363.970666)"><g><path d="M 227.15625 -3.78125 C 227.789062 -3.78125 228.109375 -3.148438 228.109375 -1.890625 C 228.109375 -0.628906 227.789062 0 227.15625 0 C 220.632812 0 215.585938 -0.101562 212.015625 -0.3125 L 190.875 -0.625 L 169.109375 -0.3125 C 165.535156 -0.101562 160.59375 0 154.28125 0 C 153.644531 0 153.328125 -0.628906 153.328125 -1.890625 C 153.328125 -3.148438 153.644531 -3.78125 154.28125 -3.78125 C 162.695312 -3.78125 168.796875 -4.304688 172.578125 -5.359375 C 176.359375 -6.410156 178.929688 -8.410156 180.296875 -11.359375 C 181.671875 -14.304688 182.359375 -19.039062 182.359375 -25.5625 L 182.359375 -99.703125 L 56.46875 -99.703125 L 56.46875 -25.5625 C 56.46875 -19.039062 57.148438 -14.304688 58.515625 -11.359375 C 59.890625 -8.410156 62.46875 -6.410156 66.25 -5.359375 C 70.039062 -4.304688 76.140625 -3.78125 84.546875 -3.78125 C 84.972656 -3.78125 85.1875 -3.148438 85.1875 -1.890625 C 85.1875 -0.628906 84.972656 0 84.546875 0 C 78.242188 0 73.195312 -0.101562 69.40625 -0.3125 L 47.953125 -0.625 L 27.140625 -0.3125 C 23.347656 -0.101562 18.085938 0 11.359375 0 C 10.941406 0 10.734375 -0.628906 10.734375 -1.890625 C 10.734375 -3.148438 10.941406 -3.78125 11.359375 -3.78125 C 19.554688 -3.78125 25.601562 -4.304688 29.5 -5.359375 C 33.394531 -6.410156 36.078125 -8.460938 37.546875 -11.515625 C 39.015625 -14.566406 39.75 -19.25 39.75 -25.5625 L 39.75 -171.625 C 39.75 -177.9375 39.066406 -182.566406 37.703125 -185.515625 C 36.335938 -188.460938 33.707031 -190.515625 29.8125 -191.671875 C 25.925781 -192.828125 19.878906 -193.40625 11.671875 -193.40625 C 11.253906 -193.40625 11.046875 -194.035156 11.046875 -195.296875 C 11.046875 -196.554688 11.253906 -197.1875 11.671875 -197.1875 L 27.140625 -196.875 C 35.972656 -196.445312 42.910156 -196.234375 47.953125 -196.234375 C 53.628906 -196.234375 60.882812 -196.445312 69.71875 -196.875 L 84.546875 -197.1875 C 84.972656 -197.1875 85.1875 -196.554688 85.1875 -195.296875 C 85.1875 -194.035156 84.972656 -193.40625 84.546875 -193.40625 C 76.347656 -193.40625 70.300781 -192.769531 66.40625 -191.5 C 62.519531 -190.238281 59.890625 -188.082031 58.515625 -185.03125 C 57.148438 -181.988281 56.46875 -177.3125 56.46875 -171 L 56.46875 -105.6875 L 182.359375 -105.6875 L 182.359375 -171 C 182.359375 -177.3125 181.671875 -181.988281 180.296875 -185.03125 C 178.929688 -188.082031 176.300781 -190.238281 172.40625 -191.5 C 168.519531 -192.769531 162.476562 -193.40625 154.28125 -193.40625 C 153.644531 -193.40625 153.328125 -194.035156 153.328125 -195.296875 C 153.328125 -196.554688 153.644531 -197.1875 154.28125 -197.1875 L 169.109375 -196.875 C 177.941406 -196.445312 185.195312 -196.234375 190.875 -196.234375 C 196.132812 -196.234375 203.179688 -196.445312 212.015625 -196.875 L 227.15625 -197.1875 C 227.789062 -197.1875 228.109375 -196.554688 228.109375 -195.296875 C 228.109375 -194.035156 227.789062 -193.40625 227.15625 -193.40625 C 218.957031 -193.40625 212.910156 -192.828125 209.015625 -191.671875 C 205.128906 -190.515625 202.445312 -188.460938 200.96875 -185.515625 C 199.5 -182.566406 198.765625 -177.9375 198.765625 -171.625 L 198.765625 -25.5625 C 198.765625 -19.25 199.5 -14.566406 200.96875 -11.515625 C 202.445312 -8.460938 205.128906 -6.410156 209.015625 -5.359375 C 212.910156 -4.304688 218.957031 -3.78125 227.15625 -3.78125 Z M 227.15625 -3.78125 "/></g></g></g><g clip-path="url(#82208b0a47)"><g clip-path="url(#54f0994706)"><g clip-path="url(#6e955a452f)"><path fill="#000000" d="M 189.050781 110.464844 L 236.308594 138.984375 L 129.179688 316.488281 L 81.925781 287.96875 Z M 189.050781 110.464844 " fill-opacity="1" fill-rule="nonzero"/></g></g></g><g clip-path="url(#500ecc3691)"><g clip-path="url(#b373c2f4ca)"><g clip-path="url(#72b5f768db)"><path fill="#000000" d="M 136.324219 145.757812 L 200.871094 184.714844 L 161.21875 250.414062 L 96.671875 211.457031 Z M 136.324219 145.757812 " fill-opacity="1" fill-rule="nonzero"/></g></g></g><path stroke-linecap="butt" transform="matrix(0.444657, -0.60332, 0.603742, 0.444967, 51.063728, 354.330769)" fill="none" stroke-linejoin="miter" d="M 0.00176384 2.998778 L 492.356532 3.000322 " stroke="#ffffff" stroke-width="6" stroke-opacity="1" stroke-miterlimit="4"/></svg>