<svg xmlns="http://www.w3.org/2000/svg" xmlns:xlink="http://www.w3.org/1999/xlink" width="150" zoomAndPan="magnify" viewBox="0 0 112.5 112.499997" height="150" preserveAspectRatio="xMidYMid meet" version="1.0"><defs><g/><clipPath id="f51a5efdc6"><path d="M 48.59375 2.171875 L 65.5 2.171875 L 65.5 110.328125 L 48.59375 110.328125 Z M 48.59375 2.171875 " clip-rule="nonzero"/></clipPath></defs><g fill="#ffffff" fill-opacity="1"><g transform="translate(17.86641, 106.67971)"><g><path d="M 35.640625 2.703125 C 30.128906 2.703125 24.515625 2.023438 18.796875 0.671875 C 13.085938 -0.679688 8.328125 -2.457031 4.515625 -4.65625 L 5.265625 -25.109375 L 6.765625 -25.109375 L 11.4375 -15.34375 C 12.832031 -12.53125 14.332031 -10.046875 15.9375 -7.890625 C 17.539062 -5.734375 19.75 -4.054688 22.5625 -2.859375 C 24.5625 -1.859375 26.488281 -1.179688 28.34375 -0.828125 C 30.195312 -0.472656 32.28125 -0.296875 34.59375 -0.296875 C 40.707031 -0.296875 45.539062 -1.953125 49.09375 -5.265625 C 52.65625 -8.578125 54.4375 -12.835938 54.4375 -18.046875 C 54.4375 -22.960938 53.234375 -26.796875 50.828125 -29.546875 C 48.421875 -32.304688 44.5625 -34.988281 39.25 -37.59375 L 33.09375 -40.3125 C 24.46875 -44.113281 17.722656 -48.492188 12.859375 -53.453125 C 7.992188 -58.421875 5.5625 -65.015625 5.5625 -73.234375 C 5.5625 -79.148438 7.085938 -84.265625 10.140625 -88.578125 C 13.203125 -92.890625 17.460938 -96.195312 22.921875 -98.5 C 28.390625 -100.8125 34.785156 -101.96875 42.109375 -101.96875 C 47.421875 -101.96875 52.457031 -101.265625 57.21875 -99.859375 C 61.988281 -98.453125 66.125 -96.546875 69.625 -94.140625 L 68.734375 -76.09375 L 67.21875 -76.09375 L 61.0625 -87.375 C 59.351562 -90.882812 57.644531 -93.363281 55.9375 -94.8125 C 54.238281 -96.269531 52.285156 -97.300781 50.078125 -97.90625 C 48.773438 -98.300781 47.570312 -98.570312 46.46875 -98.71875 C 45.363281 -98.875 43.960938 -98.953125 42.265625 -98.953125 C 37.148438 -98.953125 32.835938 -97.472656 29.328125 -94.515625 C 25.816406 -91.554688 24.0625 -87.570312 24.0625 -82.5625 C 24.0625 -77.445312 25.414062 -73.359375 28.125 -70.296875 C 30.832031 -67.242188 34.789062 -64.515625 40 -62.109375 L 46.921875 -59.109375 C 56.546875 -54.890625 63.460938 -50.398438 67.671875 -45.640625 C 71.890625 -40.878906 74 -34.738281 74 -27.21875 C 74 -18.394531 70.660156 -11.203125 63.984375 -5.640625 C 57.316406 -0.078125 47.867188 2.703125 35.640625 2.703125 Z M 35.640625 2.703125 "/></g></g></g><g clip-path="url(#f51a5efdc6)"><path fill="#000000" d="M 48.59375 2.171875 L 65.5 2.171875 L 65.5 110.328125 L 48.59375 110.328125 Z M 48.59375 2.171875 " fill-opacity="1" fill-rule="nonzero"/></g><g fill="#ffffff" fill-opacity="1"><g transform="translate(61.55957, 104.372425)"><g><path d="M 0 -0.28125 L -0.125 -0.28125 L -0.234375 -0.546875 C -0.296875 -0.722656 -0.378906 -0.835938 -0.484375 -0.890625 C -0.585938 -0.953125 -0.722656 -0.984375 -0.890625 -0.984375 L -7.71875 -0.984375 C -7.894531 -0.984375 -8.035156 -0.953125 -8.140625 -0.890625 C -8.242188 -0.835938 -8.328125 -0.722656 -8.390625 -0.546875 L -8.484375 -0.28125 L -8.625 -0.28125 L -8.625 -3.609375 L -8.484375 -3.609375 L -8.40625 -3.390625 C -8.34375 -3.222656 -8.257812 -3.109375 -8.15625 -3.046875 C -8.050781 -2.984375 -7.914062 -2.953125 -7.75 -2.953125 L -4.578125 -2.953125 L -4.578125 -6.078125 L -7.75 -6.078125 C -7.914062 -6.078125 -8.050781 -6.046875 -8.15625 -5.984375 C -8.257812 -5.929688 -8.34375 -5.816406 -8.40625 -5.640625 L -8.484375 -5.40625 L -8.625 -5.40625 L -8.625 -8.734375 L -8.484375 -8.734375 L -8.390625 -8.484375 C -8.328125 -8.316406 -8.242188 -8.203125 -8.140625 -8.140625 C -8.035156 -8.078125 -7.894531 -8.046875 -7.71875 -8.046875 L -0.890625 -8.046875 C -0.722656 -8.046875 -0.585938 -8.078125 -0.484375 -8.140625 C -0.378906 -8.203125 -0.296875 -8.316406 -0.234375 -8.484375 L -0.125 -8.734375 L 0 -8.734375 L 0 -5.40625 L -0.125 -5.40625 L -0.203125 -5.640625 C -0.273438 -5.816406 -0.359375 -5.929688 -0.453125 -5.984375 C -0.554688 -6.046875 -0.695312 -6.078125 -0.875 -6.078125 L -4.3125 -6.078125 L -4.3125 -2.953125 L -0.875 -2.953125 C -0.550781 -2.953125 -0.328125 -3.097656 -0.203125 -3.390625 L -0.125 -3.609375 L 0 -3.609375 Z M 0 -0.28125 "/></g></g></g><g fill="#ffffff" fill-opacity="1"><g transform="translate(61.55957, 92.478492)"><g><path d="M 0 -0.28125 L -0.125 -0.28125 L -0.25 -0.59375 C -0.3125 -0.738281 -0.390625 -0.835938 -0.484375 -0.890625 C -0.585938 -0.953125 -0.726562 -0.984375 -0.90625 -0.984375 L -7.71875 -0.984375 C -7.894531 -0.984375 -8.03125 -0.957031 -8.125 -0.90625 C -8.226562 -0.863281 -8.3125 -0.757812 -8.375 -0.59375 L -8.484375 -0.28125 L -8.625 -0.28125 L -8.625 -6.546875 L -6.609375 -6.625 L -6.609375 -6.484375 L -7.84375 -5.9375 C -8 -5.851562 -8.125 -5.765625 -8.21875 -5.671875 C -8.3125 -5.585938 -8.359375 -5.460938 -8.359375 -5.296875 L -8.359375 -2.9375 L -4.578125 -2.9375 L -4.578125 -4.34375 C -4.578125 -4.507812 -4.625 -4.640625 -4.71875 -4.734375 C -4.8125 -4.828125 -4.9375 -4.910156 -5.09375 -4.984375 L -5.609375 -5.234375 L -5.609375 -5.375 L -3.265625 -5.375 L -3.265625 -5.234375 L -3.8125 -4.984375 C -3.96875 -4.898438 -4.09375 -4.8125 -4.1875 -4.71875 C -4.28125 -4.632812 -4.328125 -4.507812 -4.328125 -4.34375 L -4.328125 -2.9375 L -0.265625 -2.9375 L -0.265625 -5.578125 C -0.265625 -5.753906 -0.304688 -5.890625 -0.390625 -5.984375 C -0.484375 -6.078125 -0.613281 -6.15625 -0.78125 -6.21875 L -2.015625 -6.75 L -2.015625 -6.890625 L 0 -6.8125 Z M 0 -0.28125 "/></g></g></g><g fill="#ffffff" fill-opacity="1"><g transform="translate(61.55957, 82.359936)"><g><path d="M 0 -0.28125 L -0.125 -0.28125 L -0.21875 -0.5625 C -0.28125 -0.738281 -0.359375 -0.851562 -0.453125 -0.90625 C -0.554688 -0.957031 -0.703125 -0.984375 -0.890625 -0.984375 L -7.71875 -0.984375 C -7.894531 -0.984375 -8.03125 -0.957031 -8.125 -0.90625 C -8.226562 -0.863281 -8.3125 -0.757812 -8.375 -0.59375 L -8.484375 -0.28125 L -8.625 -0.28125 L -8.625 -4.015625 C -8.625 -5.046875 -8.425781 -5.832031 -8.03125 -6.375 C -7.644531 -6.925781 -7.109375 -7.203125 -6.421875 -7.203125 C -6.046875 -7.203125 -5.664062 -7.054688 -5.28125 -6.765625 C -4.894531 -6.484375 -4.597656 -6.035156 -4.390625 -5.421875 L -0.78125 -7.234375 C -0.632812 -7.316406 -0.515625 -7.40625 -0.421875 -7.5 C -0.328125 -7.601562 -0.25 -7.738281 -0.1875 -7.90625 L -0.125 -8.078125 L 0 -8.078125 L 0 -5.734375 L -4.109375 -3.796875 L -4.109375 -2.90625 L -0.890625 -2.90625 C -0.722656 -2.90625 -0.585938 -2.929688 -0.484375 -2.984375 C -0.378906 -3.035156 -0.300781 -3.144531 -0.25 -3.3125 L -0.125 -3.625 L 0 -3.625 Z M -4.375 -2.90625 L -4.375 -3.546875 C -4.375 -4.171875 -4.539062 -4.617188 -4.875 -4.890625 C -5.207031 -5.171875 -5.707031 -5.3125 -6.375 -5.3125 C -7.039062 -5.3125 -7.535156 -5.179688 -7.859375 -4.921875 C -8.191406 -4.660156 -8.359375 -4.222656 -8.359375 -3.609375 L -8.359375 -2.90625 Z M -4.375 -2.90625 "/></g></g></g><g fill="#ffffff" fill-opacity="1"><g transform="translate(61.55957, 71.288426)"><g><path d="M 0 -0.453125 L -0.125 -0.453125 L -0.265625 -0.890625 C -0.304688 -1.046875 -0.390625 -1.15625 -0.515625 -1.21875 C -0.640625 -1.289062 -0.789062 -1.328125 -0.96875 -1.328125 L -7.25 -1.328125 C -7.457031 -1.234375 -7.613281 -1.15625 -7.71875 -1.09375 C -7.820312 -1.039062 -7.910156 -0.976562 -7.984375 -0.90625 C -8.054688 -0.84375 -8.148438 -0.75 -8.265625 -0.625 L -8.484375 -0.40625 L -8.625 -0.40625 L -8.625 -2.71875 L -2.703125 -7.046875 L -7.625 -7.046875 C -7.800781 -7.046875 -7.957031 -7.019531 -8.09375 -6.96875 C -8.238281 -6.914062 -8.332031 -6.800781 -8.375 -6.625 L -8.484375 -6.1875 L -8.625 -6.1875 L -8.625 -8.0625 L -8.484375 -8.0625 L -8.375 -7.703125 C -8.320312 -7.546875 -8.226562 -7.453125 -8.09375 -7.421875 C -7.96875 -7.390625 -7.816406 -7.375 -7.640625 -7.375 L 0.046875 -7.375 L 0.046875 -6.640625 L -6.8125 -1.640625 L -0.96875 -1.640625 C -0.789062 -1.640625 -0.640625 -1.664062 -0.515625 -1.71875 C -0.398438 -1.769531 -0.316406 -1.878906 -0.265625 -2.046875 L -0.125 -2.4375 L 0 -2.4375 Z M 0 -0.453125 "/></g></g></g><g fill="#ffffff" fill-opacity="1"><g transform="translate(61.55957, 59.890556)"><g><path d="M 0 -0.109375 L -0.125 -0.109375 L -0.25 -0.4375 C -0.320312 -0.601562 -0.40625 -0.734375 -0.5 -0.828125 C -0.601562 -0.929688 -0.742188 -1.015625 -0.921875 -1.078125 L -8.640625 -3.765625 L -8.640625 -4.875 L -0.875 -7.53125 C -0.6875 -7.59375 -0.539062 -7.664062 -0.4375 -7.75 C -0.332031 -7.84375 -0.25 -7.976562 -0.1875 -8.15625 L -0.125 -8.328125 L 0 -8.328125 L 0 -5 L -0.125 -5 L -0.203125 -5.203125 C -0.265625 -5.378906 -0.359375 -5.488281 -0.484375 -5.53125 C -0.609375 -5.570312 -0.757812 -5.566406 -0.9375 -5.515625 L -2.828125 -4.890625 L -2.828125 -2 L -0.984375 -1.375 C -0.785156 -1.3125 -0.628906 -1.289062 -0.515625 -1.3125 C -0.410156 -1.332031 -0.320312 -1.4375 -0.25 -1.625 L -0.125 -1.90625 L 0 -1.90625 Z M -3.078125 -2.09375 L -3.078125 -4.8125 L -7.140625 -3.5 Z M -3.078125 -2.09375 "/></g></g></g><g fill="#ffffff" fill-opacity="1"><g transform="translate(61.55957, 48.53185)"><g><path d="M 0 -0.453125 L -0.125 -0.453125 L -0.265625 -0.890625 C -0.304688 -1.046875 -0.390625 -1.15625 -0.515625 -1.21875 C -0.640625 -1.289062 -0.789062 -1.328125 -0.96875 -1.328125 L -7.25 -1.328125 C -7.457031 -1.234375 -7.613281 -1.15625 -7.71875 -1.09375 C -7.820312 -1.039062 -7.910156 -0.976562 -7.984375 -0.90625 C -8.054688 -0.84375 -8.148438 -0.75 -8.265625 -0.625 L -8.484375 -0.40625 L -8.625 -0.40625 L -8.625 -2.71875 L -2.703125 -7.046875 L -7.625 -7.046875 C -7.800781 -7.046875 -7.957031 -7.019531 -8.09375 -6.96875 C -8.238281 -6.914062 -8.332031 -6.800781 -8.375 -6.625 L -8.484375 -6.1875 L -8.625 -6.1875 L -8.625 -8.0625 L -8.484375 -8.0625 L -8.375 -7.703125 C -8.320312 -7.546875 -8.226562 -7.453125 -8.09375 -7.421875 C -7.96875 -7.390625 -7.816406 -7.375 -7.640625 -7.375 L 0.046875 -7.375 L 0.046875 -6.640625 L -6.8125 -1.640625 L -0.96875 -1.640625 C -0.789062 -1.640625 -0.640625 -1.664062 -0.515625 -1.71875 C -0.398438 -1.769531 -0.316406 -1.878906 -0.265625 -2.046875 L -0.125 -2.4375 L 0 -2.4375 Z M 0 -0.453125 "/></g></g></g><g fill="#ffffff" fill-opacity="1"><g transform="translate(61.55957, 37.133978)"><g><path d="M 0 -0.28125 L -0.125 -0.28125 L -0.234375 -0.5625 C -0.347656 -0.84375 -0.570312 -0.984375 -0.90625 -0.984375 L -7.71875 -0.984375 C -8.070312 -0.984375 -8.296875 -0.84375 -8.390625 -0.5625 L -8.484375 -0.28125 L -8.625 -0.28125 L -8.625 -3.734375 C -8.625 -4.660156 -8.453125 -5.457031 -8.109375 -6.125 C -7.765625 -6.789062 -7.269531 -7.300781 -6.625 -7.65625 C -5.988281 -8.019531 -5.222656 -8.203125 -4.328125 -8.203125 C -3.410156 -8.203125 -2.628906 -8.003906 -1.984375 -7.609375 C -1.335938 -7.222656 -0.84375 -6.675781 -0.5 -5.96875 C -0.164062 -5.269531 0 -4.445312 0 -3.5 Z M -0.265625 -2.9375 L -0.265625 -3.5 C -0.265625 -4.125 -0.382812 -4.628906 -0.625 -5.015625 C -0.875 -5.398438 -1.289062 -5.679688 -1.875 -5.859375 C -2.46875 -6.035156 -3.28125 -6.125 -4.3125 -6.125 C -5.34375 -6.125 -6.148438 -6.035156 -6.734375 -5.859375 C -7.316406 -5.679688 -7.734375 -5.40625 -7.984375 -5.03125 C -8.234375 -4.65625 -8.359375 -4.160156 -8.359375 -3.546875 L -8.359375 -2.9375 Z M -0.265625 -2.9375 "/></g></g></g><g fill="#ffffff" fill-opacity="1"><g transform="translate(61.55957, 25.80138)"><g><path d="M 0 -0.28125 L -0.125 -0.28125 L -0.25 -0.59375 C -0.3125 -0.738281 -0.390625 -0.835938 -0.484375 -0.890625 C -0.585938 -0.953125 -0.726562 -0.984375 -0.90625 -0.984375 L -7.71875 -0.984375 C -7.894531 -0.984375 -8.03125 -0.957031 -8.125 -0.90625 C -8.226562 -0.863281 -8.3125 -0.757812 -8.375 -0.59375 L -8.484375 -0.28125 L -8.625 -0.28125 L -8.625 -6.546875 L -6.609375 -6.625 L -6.609375 -6.484375 L -7.84375 -5.9375 C -8 -5.851562 -8.125 -5.765625 -8.21875 -5.671875 C -8.3125 -5.585938 -8.359375 -5.460938 -8.359375 -5.296875 L -8.359375 -2.9375 L -4.578125 -2.9375 L -4.578125 -4.34375 C -4.578125 -4.507812 -4.625 -4.640625 -4.71875 -4.734375 C -4.8125 -4.828125 -4.9375 -4.910156 -5.09375 -4.984375 L -5.609375 -5.234375 L -5.609375 -5.375 L -3.265625 -5.375 L -3.265625 -5.234375 L -3.8125 -4.984375 C -3.96875 -4.898438 -4.09375 -4.8125 -4.1875 -4.71875 C -4.28125 -4.632812 -4.328125 -4.507812 -4.328125 -4.34375 L -4.328125 -2.9375 L -0.265625 -2.9375 L -0.265625 -5.578125 C -0.265625 -5.753906 -0.304688 -5.890625 -0.390625 -5.984375 C -0.484375 -6.078125 -0.613281 -6.15625 -0.78125 -6.21875 L -2.015625 -6.75 L -2.015625 -6.890625 L 0 -6.8125 Z M 0 -0.28125 "/></g></g></g><g fill="#ffffff" fill-opacity="1"><g transform="translate(61.55957, 15.682821)"><g><path d="M 0 -0.265625 L -0.15625 -0.265625 L -8.359375 -4.796875 L -8.359375 -2.3125 C -8.359375 -2.019531 -8.289062 -1.785156 -8.15625 -1.609375 C -8.03125 -1.429688 -7.84375 -1.273438 -7.59375 -1.140625 L -6.53125 -0.53125 L -6.53125 -0.40625 L -8.625 -0.5 L -8.625 -6.890625 L -8.46875 -6.890625 L -0.265625 -2.34375 L -0.265625 -5.203125 C -0.265625 -5.484375 -0.332031 -5.707031 -0.46875 -5.875 C -0.601562 -6.050781 -0.796875 -6.207031 -1.046875 -6.34375 L -2.09375 -6.90625 L -2.09375 -7.046875 L 0 -6.953125 Z M 0 -0.265625 "/></g></g></g></svg>