<svg width="40" height="26" fill="none" xmlns="http://www.w3.org/2000/svg"><path d="M19.75 25.25c.125 0 .25 0 .375-.063l3.625-2.125c.188-.125.375-.375.375-.625V18.25c0-.25-.188-.5-.375-.625L20.125 15.5c-.25-.125-.563-.125-.75 0l-3.625 2.125a.687.687 0 00-.375.625v4.188c0 .25.125.5.375.625l.938.562c.437.25.625.25.812.25.688 0 1.125-.438 1.125-1.125v-4.125a.134.134 0 00-.125-.125h-.438a.134.134 0 00-.125.125v4.125c0 .313-.312.625-.875.313l-1-.563-.062-.063V18.25l.063-.063 3.625-2.125h.125l3.625 2.125V22.5l-3.625 2.125h-.125l-.938-.563h-.063c-.25.125-.312.188-.562.25-.063 0-.125.063.063.125l1.187.75c.125.063.25.063.375.063zm2.938-4.063c0-.812-.563-1-1.688-1.187-1.125-.125-1.188-.188-1.188-.438s.063-.5.875-.5c.75 0 1.063.125 1.125.625.063.063.063.063.125.063h.563v-.063c-.063-.875-.625-1.312-1.813-1.312-1 0-1.625.438-1.625 1.188 0 .812.625 1 1.625 1.125 1.188.125 1.25.25 1.25.5 0 .437-.312.562-1.062.562-1 0-1.188-.25-1.25-.688a.134.134 0 00-.125-.125h-.438a.134.134 0 00-.125.125c0 .625.313 1.313 1.938 1.313 1.125 0 1.813-.438 1.813-1.188zm3.375-3.125c0-.437-.313-.75-.688-.75-.375 0-.688.313-.688.75 0 .375.313.688.688.688a.694.694 0 00.688-.688zm-.125 0a.56.56 0 01-.563.563.56.56 0 01-.563-.563c0-.375.25-.625.563-.625.313 0 .563.25.563.625zm-.25.375c-.063-.062-.063-.187-.063-.25 0-.062 0-.125-.125-.125.063-.062.125-.062.125-.187 0-.25-.125-.25-.25-.25h-.25v.813h.125v-.313h.125c.063 0 .063 0 .125.063v.25h.188zm-.188-.562c0 .063 0 .125-.125.125h-.125v-.25h.125c.063 0 .125 0 .125.125zM8.562 8.937c0-.124-.124-.312-.25-.374L4.5 6.374c-.063-.063-.125-.063-.25-.063-.063 0-.125 0-.25.063L.187 8.563c-.124.062-.187.25-.187.374v5.938c0 .125 0 .188.063.25h.25l2.312-1.313a.567.567 0 00.188-.437v-2.75a.42.42 0 01.25-.375L4 9.687c.125-.062.188-.062.25-.062.063 0 .188 0 .25.063l.938.562c.187.063.25.188.25.375v2.75c0 .188.062.313.25.438l2.25 1.312h.25c.062-.063.124-.125.124-.25V8.937zM29.5 2.5c0-.188-.063-.313-.25-.438L27 .813c-.188-.062-.375 0-.375.188v5.875c0 .125-.125.188-.25.125l-.938-.5a.302.302 0 00-.437 0l-3.875 2.188c-.125.062-.188.25-.188.374V13.5c0 .188.063.313.188.438L25 16.125a.534.534 0 00.438 0l3.812-2.188c.188-.124.25-.25.25-.437v-11zm-2.875 8.063v1.5c0 .062 0 .062-.063.124l-1.312.75h-.125l-1.313-.75c0-.062-.062-.062-.062-.124v-1.5c0-.063.063-.126.063-.126l1.312-.75h.125l1.313.75c.062 0 .062.063.062.126zM39.75 10.5c.125-.063.25-.25.25-.375V9c0-.125-.125-.313-.25-.375l-3.813-2.188a.302.302 0 00-.437 0l-3.875 2.188c-.125.063-.188.25-.188.375v4.438c0 .187.063.312.188.437L35.438 16a.302.302 0 00.437 0l2.313-1.25c.187-.125.187-.313 0-.438l-3.813-2.187c-.125-.063-.125-.125-.125-.188v-1.374c0-.126 0-.188.125-.25l1.188-.688h.187l1.25.688c.063.062.125.124.125.25v1.062c0 .188.188.313.313.188L39.75 10.5zm-4.813.188c-.062.062-.062.062-.062.124v.813c0 .063 0 .063.063.063l.687.437c.063.063.063.063.125 0l.75-.438v-.999l-.75-.376c-.063-.062-.063-.062-.125 0l-.688.376zM19 13.438V9.061c0-.187-.063-.374-.25-.437l-3.813-2.188a.534.534 0 00-.437 0l-3.813 2.188a.526.526 0 00-.25.438v4.374c0 .188.126.313.25.376l3.813 2.25a.69.69 0 00.5 0l3.813-2.25c.062-.063.187-.126.187-.25v-.126zm-4.625-7.813v.063h-.063l.063-.063z" fill="#2A7AE4"/></svg>