<svg width="23" height="31" fill="none" xmlns="http://www.w3.org/2000/svg"><path d="M13.333 3c0-1.467 1.2-2.667 2.667-2.667 1.467 0 2.667 1.2 2.667 2.667 0 1.467-1.2 2.667-2.667 2.667A2.675 2.675 0 0113.333 3zM5.667 29c-.547 0-1 .453-1 1 0 .547.453 1 1 1 .546 0 1-.453 1-1 0-.547-.454-1-1-1zM17 29c-.547 0-1 .453-1 1 0 .547.453 1 1 1 .547 0 1-.453 1-1 0-.547-.453-1-1-1zm4.653-4.667a.96.96 0 00-.786.4 3.997 3.997 0 01-3.2 1.6h-.334v-8l-5.76-3.56 2.4-3.853a8.676 8.676 0 007.36 4.08v-2.667a5.998 5.998 0 01-5.506-3.626l-.694-1.614c-.253-.573-.986-1.426-2.2-1.426h-7.6L2 11l2.267 1.413L6.8 8.333h3.133l-3.2 5.12a2.674 2.674 0 00-.28 2.227l1.787 5.533-4.16 5.014a3.949 3.949 0 01-2.28-1.494.985.985 0 00-.8-.4.998.998 0 00-.8 1.6 5.966 5.966 0 004.8 2.4h12.667c1.96 0 3.706-.933 4.8-2.4.133-.186.2-.4.2-.6 0-.52-.427-1-1.014-1zm-6.986 2h-7.2l3.866-4.666-1.333-4.4 4.667 2.933v6.133z" fill="#2A7AE4"/></svg>