<svg width="40" height="22" fill="none" xmlns="http://www.w3.org/2000/svg"><path d="M20 1.563c10.688 0 18.938 4.5 18.938 9.437 0 5-8.25 9.5-18.938 9.5C9.25 20.5 1 16 1 11c0-4.938 8.25-9.438 19-9.438zM20 .5C8.937.5 0 5.188 0 11c0 5.813 8.938 10.563 20 10.563 11 0 20-4.75 20-10.563C40 5.187 31 .5 20 .5zm-6.375 9.688c-.5 2.5-2.25 2.25-4.375 2.25l.813-4.376c2.374 0 4-.25 3.562 2.126zm-7.563 6.75h2.313l.5-2.813c2.563 0 4.188.188 5.688-1.188 1.624-1.5 2-4.187.874-5.5-.624-.687-1.562-1.062-2.937-1.062H8.125L6.062 16.938zM17.688 3.563l-2.062 10.562h2.25l1.188-6.063c1.875 0 2.625-.062 3 .313.312.375.125.75-.813 5.75h2.313c1-5.125 1.437-6.25.5-7.063-.875-.812-2.688-.687-4.688-.687l.563-2.813h-2.25zm13.875 6.624c-.5 2.563-2.312 2.25-4.437 2.25L28 8.064c2.375 0 4-.25 3.563 2.124zM24 16.938h2.313l.5-2.812c2.687 0 4.187.125 5.625-1.188 1.687-1.5 2.062-4.187.937-5.5-.625-.687-1.625-1.062-2.938-1.062h-4.375L24 16.938z" fill="#2A7AE4"/></svg>