<svg width="32" height="30" fill="none" xmlns="http://www.w3.org/2000/svg"><path d="M26.125 10.125c-.375-.125-.688-.25-1-.313 0-.25.063-.5.125-.75.75-3.687.25-6.687-1.438-7.687-1.625-.938-4.312.063-7.062 2.438-.25.187-.5.437-.75.687-.188-.188-.375-.313-.5-.5C12.625 1.5 9.75.437 8.062 1.437c-1.624.938-2.124 3.75-1.437 7.313.063.313.125.688.25 1-.438.125-.813.25-1.188.375C2.376 11.313 0 13.125 0 15c0 1.938 2.5 3.938 6 5.125.25.063.563.188.813.25-.063.375-.125.75-.25 1.125-.625 3.438-.125 6.188 1.5 7.125 1.687 1 4.562 0 7.312-2.438.188-.187.438-.375.625-.562.313.25.563.5.875.75 2.688 2.313 5.313 3.25 6.938 2.313 1.687-1 2.25-3.938 1.562-7.563-.063-.25-.125-.563-.188-.813l.563-.187C29.375 18.937 32 17 32 15c0-1.875-2.5-3.75-5.875-4.875zm-8.5-5.313C20 2.75 22.125 2 23.125 2.563c1.063.563 1.5 3.063.813 6.25-.063.25-.063.438-.125.626a33.192 33.192 0 00-4.25-.626 34.772 34.772 0 00-2.625-3.374c.25-.188.437-.438.687-.625zM10.437 18.25c.313.563.626 1.063 1 1.625-1-.125-2-.25-2.937-.5.313-.875.625-1.813 1-2.75.313.563.625 1.063.938 1.625zM8.5 10.75c.938-.25 1.875-.375 2.875-.5-.313.5-.625 1.063-.938 1.563-.312.562-.624 1.062-.937 1.624a73.2 73.2 0 01-1-2.687zm1.75 4.313c.375-.876.875-1.75 1.313-2.563.5-.813 1-1.625 1.562-2.438C14.063 10 15 9.938 16 9.938c.938 0 1.938.062 2.813.124a53.111 53.111 0 011.562 2.438c.438.813.938 1.625 1.313 2.5a19.84 19.84 0 01-1.313 2.563L18.875 20c-.938.063-1.938.125-2.875.125-1 0-1.938-.063-2.875-.125a52.717 52.717 0 01-1.563-2.438c-.437-.812-.874-1.687-1.312-2.5zM21.5 18.25c.375-.563.625-1.125.938-1.688.375.938.75 1.813 1.062 2.75-1 .25-1.938.438-2.938.5.313-.5.625-1.062.938-1.562zm.938-4.813c-.313-.562-.625-1.062-.938-1.624-.313-.5-.625-1.063-.938-1.563 1 .125 2 .313 2.875.5a34.114 34.114 0 01-1 2.688zm-6.438-7c.625.688 1.25 1.438 1.813 2.25a36.278 36.278 0 00-3.688 0A35.725 35.725 0 0116 6.438zM8.75 2.563C9.813 2 12.125 2.876 14.563 5c.187.188.312.313.5.438a27.673 27.673 0 00-2.688 3.375c-1.438.124-2.813.312-4.188.624-.124-.312-.187-.624-.25-1-.562-3-.187-5.25.813-5.874zm-1.563 16.5c-.25-.062-.5-.125-.75-.25-1.312-.437-2.875-1.062-3.937-1.937A2.895 2.895 0 011.312 15c0-1.125 2-2.625 4.813-3.625.375-.125.75-.188 1.125-.313.375 1.376.938 2.688 1.5 4-.625 1.25-1.125 2.626-1.563 4zm7.313 6.125c-1.063.938-2.25 1.688-3.563 2.188-.687.375-1.437.375-2.187.125-1-.625-1.375-2.813-.813-5.75.063-.375.125-.75.188-1.063 1.438.313 2.813.5 4.25.625.813 1.125 1.75 2.25 2.688 3.313l-.563.563zm1.5-1.5a25.007 25.007 0 01-1.875-2.312c.625.063 1.25.063 1.875.063s1.25 0 1.875-.063A21.675 21.675 0 0116 23.688zm8.188 1.875c-.063.75-.438 1.438-1 1.938-1 .563-3.125-.188-5.438-2.125-.25-.25-.5-.5-.813-.75a27.13 27.13 0 002.688-3.313c1.438-.125 2.813-.375 4.25-.687l.188.75c.25 1.375.312 2.813.125 4.188zm1.125-6.75c-.188.063-.313.125-.5.188-.438-1.375-1-2.688-1.625-4 .625-1.25 1.125-2.563 1.562-3.938.313.126.625.188.938.313 2.875 1 4.937 2.5 4.937 3.625 0 1.188-2.188 2.813-5.313 3.813zM16 17.875c1.563 0 2.813-1.25 2.813-2.875A2.8 2.8 0 0016 12.187c-1.625 0-2.875 1.25-2.875 2.813 0 1.625 1.25 2.875 2.875 2.875z" fill="#2A7AE4"/></svg>